<svg version="1.1" id="Layer_1" xmlns="http://www.w3.org/2000/svg" xmlns:xlink="http://www.w3.org/1999/xlink" x="0px" y="0px"
	 width="100%" viewBox="0 0 192 192" enable-background="new 0 0 192 192" xml:space="preserve">
<path fill="#141516" opacity="1.000000" stroke="none" 
	d="
M92.000000,193.000000 
	C61.333336,193.000000 31.166670,193.000000 1.000004,193.000000 
	C1.000003,129.000000 1.000003,65.000008 1.000001,1.000013 
	C64.999992,1.000008 128.999985,1.000008 192.999969,1.000004 
	C192.999985,64.999985 192.999985,128.999969 193.000000,192.999969 
	C159.500000,193.000000 126.000000,193.000000 92.000000,193.000000 
M73.353935,63.912163 
	C68.668129,66.063347 63.841038,67.965065 59.370842,70.496925 
	C57.739288,71.421013 55.975788,73.824104 55.941250,75.585182 
	C55.663818,89.731941 55.837910,103.886856 55.753681,118.038551 
	C55.728054,122.344582 57.538464,122.909401 61.027664,121.241875 
	C65.175957,119.259384 69.379745,117.392990 74.295105,115.138947 
	C74.295105,119.882912 74.227074,123.823616 74.312813,127.760963 
	C74.413628,132.390869 75.462570,133.029449 79.786392,131.131516 
	C83.384674,129.552048 86.934166,127.861397 91.289421,125.859566 
	C91.289421,130.417435 91.350746,134.178238 91.272820,137.936142 
	C91.188545,142.000290 92.759476,143.002365 96.483757,141.257980 
	C109.284416,135.262405 122.190277,129.487350 134.901825,123.310852 
	C136.480896,122.543594 138.037140,119.886574 138.071518,118.076111 
	C138.333786,104.261887 138.243378,90.440338 138.201218,76.621262 
	C138.185211,71.376358 137.200058,70.832855 132.206940,73.093025 
	C128.801575,74.634499 125.412560,76.212051 121.281517,78.111252 
	C121.281517,73.586464 121.335304,69.973419 121.268219,66.362617 
	C121.179672,61.596500 120.245033,60.963100 115.950722,62.826607 
	C111.737473,64.654938 107.580032,66.611885 103.411858,68.506134 
	C103.035164,67.717049 102.781776,67.430374 102.777695,67.140205 
	C102.733231,63.977501 102.729027,60.814243 102.711441,57.651146 
	C102.675896,51.255360 101.843971,50.699322 96.212799,53.307880 
	C88.819229,56.732838 81.426208,60.158966 73.353935,63.912163 
z"/>
<path fill="#FCFCFC" opacity="1.000000" stroke="none" 
	d="
M73.693443,63.748375 
	C81.426208,60.158966 88.819229,56.732838 96.212799,53.307880 
	C101.843971,50.699322 102.675896,51.255360 102.711441,57.651146 
	C102.729027,60.814243 102.733231,63.977501 102.777695,67.140205 
	C102.781776,67.430374 103.035164,67.717049 103.411858,68.506134 
	C107.580032,66.611885 111.737473,64.654938 115.950722,62.826607 
	C120.245033,60.963100 121.179672,61.596500 121.268219,66.362617 
	C121.335304,69.973419 121.281517,73.586464 121.281517,78.111252 
	C125.412560,76.212051 128.801575,74.634499 132.206940,73.093025 
	C137.200058,70.832855 138.185211,71.376358 138.201218,76.621262 
	C138.243378,90.440338 138.333786,104.261887 138.071518,118.076111 
	C138.037140,119.886574 136.480896,122.543594 134.901825,123.310852 
	C122.190277,129.487350 109.284416,135.262405 96.483757,141.257980 
	C92.759476,143.002365 91.188545,142.000290 91.272820,137.936142 
	C91.350746,134.178238 91.289421,130.417435 91.289421,125.859566 
	C86.934166,127.861397 83.384674,129.552048 79.786392,131.131516 
	C75.462570,133.029449 74.413628,132.390869 74.312813,127.760963 
	C74.227074,123.823616 74.295105,119.882912 74.295105,115.138947 
	C69.379745,117.392990 65.175957,119.259384 61.027664,121.241875 
	C57.538464,122.909401 55.728054,122.344582 55.753681,118.038551 
	C55.837910,103.886856 55.663818,89.731941 55.941250,75.585182 
	C55.975788,73.824104 57.739288,71.421013 59.370842,70.496925 
	C63.841038,67.965065 68.668129,66.063347 73.693443,63.748375 
z"/>
</svg>