<?xml version="1.0" encoding="UTF-8"?>
<svg id="Layer_2" data-name="Layer 2" xmlns="http://www.w3.org/2000/svg" viewBox="0 0 512 514.19">
  <defs>
    <style>
      .cls-1 {
        fill: #fff;
      }

      .cls-2 {
        fill: #626263;
      }

      .cls-3 {
        fill: #161618;
      }
    </style>
  </defs>
  <g id="Layer_1-2" data-name="Layer 1">
    <g>
      <path class="cls-3" d="M511,0c.59,170.9.75,342.07.46,513.51-170.6.46-341.09.36-511.46-.32V0h511Z"/>
      <polygon class="cls-1" points="511 0 512 0 512 514.19 0 514.19 0 513.2 510.92 513.11 511 0"/>
      <path class="cls-1" d="M205.62,349.36c-1.35,2.27-5.38,3.14-7.05,1-2.05-1.52-3.58-4.05-3.63-7.11l-.58-38.02-40.52,18.36c-2.05.93-5-.16-6.13-1.47-.81-.94-2.03-2.63-2.03-4.81v-122.55c-.01-2.85,1.19-5.2,3.78-6.39l112.5-51.99c2.25-1.04,4.29-.43,5.78.52s2.68,2.68,2.71,4.96l.56,39.61,40.03-18.18c2.41-1.09,4.64-.94,6.64.53,1.2.88,2.48,2.89,2.5,5.13l.31,37.14,35.86-16.22c1.96-.89,4.94-.54,6.39.64,1.14.92,2.61,2.85,2.61,5.34l-.02,122.42c0,2.92-1.56,5.27-3.82,6.34l-57.65,27.29-54.89,25.9c-2.04.96-4.26.4-5.72-.52s-2.66-2.71-2.69-4.98l-.5-38.62-34.43,15.66Z"/>
      <path class="cls-2" d="M205.62,349.36c-.41,1.99-1.59,3.29-3.52,3.24s-3.76.03-3.53-2.24c2.36.17,4.86,0,7.05-1Z"/>
    </g>
  </g>
</svg>